<?xml version="1.0" standalone="no"?>
<!DOCTYPE svg PUBLIC "-//W3C//DTD SVG 20010904//EN"
 "http://www.w3.org/TR/2001/REC-SVG-20010904/DTD/svg10.dtd">
<svg version="1.0" xmlns="http://www.w3.org/2000/svg"
 width="100.000000pt" height="100.000000pt" viewBox="0 0 100.000000 100.000000"
 preserveAspectRatio="xMidYMid meet">

<g transform="translate(0.000000,100.000000) scale(0.100000,-0.100000)"
fill="#000000" stroke="none">
<path d="M406 923 c-3 -4 -6 -15 -6 -25 0 -22 -28 -24 -36 -3 -9 24 -24 17
-24 -10 0 -25 -23 -35 -35 -15 -12 19 -25 10 -25 -16 0 -23 -3 -25 -28 -19
-25 5 -29 3 -28 -17 1 -19 -4 -23 -26 -21 -23 1 -26 -2 -25 -25 2 -23 -2 -27
-22 -24 -18 2 -22 -1 -16 -15 12 -32 10 -37 -13 -41 -17 -3 -22 -8 -17 -20 12
-31 10 -37 -12 -40 -27 -4 -28 -8 -7 -29 15 -15 14 -18 -8 -34 -23 -18 -23
-18 -3 -33 l20 -16 -20 -16 c-19 -14 -19 -16 -2 -25 18 -11 24 -39 7 -39 -5 0
-10 -7 -10 -15 0 -8 7 -15 15 -15 17 0 20 -25 5 -35 -17 -11 -11 -25 11 -25
19 0 21 -4 16 -30 -6 -26 -3 -30 14 -30 16 0 20 -5 17 -27 -3 -24 0 -28 20
-25 18 3 22 -2 22 -22 0 -21 5 -26 25 -26 19 0 25 -5 25 -21 0 -18 4 -20 25
-15 20 5 26 2 31 -18 5 -22 8 -23 25 -13 20 12 31 4 42 -28 2 -6 10 -5 20 3
18 15 37 8 37 -14 0 -8 5 -14 10 -13 6 0 10 5 10 10 0 20 31 23 45 4 13 -19
14 -18 28 1 15 19 16 19 35 2 19 -17 20 -17 25 3 5 21 31 27 42 10 10 -17 25
-11 25 9 0 27 15 34 34 16 10 -10 17 -12 21 -4 4 5 4 13 1 16 -3 3 -1 12 5 19
8 10 16 11 30 3 16 -8 19 -6 19 14 0 31 9 38 30 27 22 -12 34 -1 19 16 -14 17
-2 36 21 32 22 -3 24 0 14 26 -8 20 11 37 33 29 15 -6 18 13 3 22 -20 12 -10
35 15 35 30 0 32 11 4 28 -16 11 -18 16 -9 28 7 8 19 14 26 14 8 0 14 5 14 10
0 6 -7 10 -15 10 -24 0 -18 37 8 44 l22 7 -22 11 c-26 13 -30 36 -8 44 21 9
19 24 -4 24 -31 0 -37 21 -11 42 l22 18 -25 0 c-33 0 -43 17 -23 39 22 25 20
30 -11 28 -29 -2 -33 9 -18 47 7 16 6 17 -15 6 -30 -16 -50 2 -32 30 6 11 8
21 2 25 -5 3 -11 1 -15 -5 -3 -5 -15 -10 -26 -10 -18 0 -20 4 -14 31 l7 31
-26 -17 c-24 -16 -26 -16 -32 -1 -3 9 -4 23 0 31 7 19 -3 19 -25 -1 -21 -19
-39 -11 -39 17 0 23 -9 24 -25 2 -14 -19 -35 -9 -35 18 0 25 -8 24 -29 -3 -18
-22 -41 -18 -41 8 0 8 -4 14 -10 14 -5 0 -10 -6 -10 -14 0 -26 -23 -30 -40 -8
-10 12 -20 18 -24 15z m147 -73 c134 -22 159 -103 51 -166 -96 -56 -280 -82
-344 -49 -45 23 -54 48 -34 90 24 52 97 98 189 121 64 16 68 16 138 4z m191
-135 c9 -25 -5 -45 -30 -45 -26 0 -40 20 -30 45 3 8 16 15 30 15 13 0 26 -7
30 -15z m80 -98 c29 -39 34 -147 11 -222 -29 -91 -98 -175 -156 -190 -91 -23
-106 156 -29 320 57 120 126 156 174 92z m-586 -9 c16 -16 15 -23 -4 -42 -12
-12 -20 -13 -35 -6 -19 10 -26 40 -12 53 10 11 38 8 51 -5z m313 -47 c76 -76
-16 -194 -106 -135 -52 34 -50 120 4 149 40 22 70 18 102 -14z m-280 -58 c72
-36 159 -126 199 -207 34 -68 35 -100 4 -130 -57 -57 -234 46 -299 173 -37 74
-42 129 -15 164 27 34 42 34 111 0z m307 -265 c30 -30 -1 -73 -36 -51 -23 14
-25 29 -7 47 20 19 27 20 43 4z"/>
</g>
</svg>
